<mxfile host="app.diagrams.net" agent="Mozilla/5.0 (Windows NT 10.0; Win64; x64) AppleWebKit/537.36 (KHTML, like Gecko) Chrome/129.0.0.0 Safari/537.36" version="24.7.17">
  <diagram name="Page-1" id="SJ87eWfn9eQxjJyZifXm">
    <mxGraphModel dx="1373" dy="699" grid="1" gridSize="10" guides="1" tooltips="1" connect="1" arrows="1" fold="1" page="1" pageScale="1" pageWidth="1400" pageHeight="850" math="0" shadow="1">
      <root>
        <mxCell id="0" />
        <mxCell id="1" parent="0" />
        <mxCell id="C1T18Cza7Uqyj3mJv797-58" value="" style="rounded=0;whiteSpace=wrap;html=1;fillColor=#f8cecc;fillStyle=solid;strokeColor=#b85450;" parent="1" vertex="1">
          <mxGeometry x="408" y="360" width="560" height="350" as="geometry" />
        </mxCell>
        <mxCell id="C1T18Cza7Uqyj3mJv797-4" value="" style="rounded=0;whiteSpace=wrap;html=1;fillColor=none;" parent="1" vertex="1">
          <mxGeometry x="242.5" y="110" width="895" height="630" as="geometry" />
        </mxCell>
        <mxCell id="C1T18Cza7Uqyj3mJv797-56" value="" style="rounded=0;whiteSpace=wrap;html=1;fillColor=#dae8fc;strokeColor=#6c8ebf;" parent="1" vertex="1">
          <mxGeometry x="426" y="480" width="520" height="210" as="geometry" />
        </mxCell>
        <mxCell id="C1T18Cza7Uqyj3mJv797-5" value="MVC Pattern Implementation (Anydev Lims)" style="text;html=1;align=center;verticalAlign=middle;resizable=0;points=[];autosize=1;strokeColor=none;fillColor=none;" parent="1" vertex="1">
          <mxGeometry x="560" y="70" width="260" height="30" as="geometry" />
        </mxCell>
        <mxCell id="C1T18Cza7Uqyj3mJv797-46" style="edgeStyle=orthogonalEdgeStyle;rounded=0;orthogonalLoop=1;jettySize=auto;html=1;entryX=0;entryY=0.25;entryDx=0;entryDy=0;exitX=1;exitY=0.25;exitDx=0;exitDy=0;" parent="1" source="C1T18Cza7Uqyj3mJv797-6" target="C1T18Cza7Uqyj3mJv797-7" edge="1">
          <mxGeometry relative="1" as="geometry" />
        </mxCell>
        <mxCell id="C1T18Cza7Uqyj3mJv797-50" value="Request data" style="edgeLabel;html=1;align=center;verticalAlign=middle;resizable=0;points=[];" parent="C1T18Cza7Uqyj3mJv797-46" vertex="1" connectable="0">
          <mxGeometry x="-0.2526" y="-1" relative="1" as="geometry">
            <mxPoint x="90" as="offset" />
          </mxGeometry>
        </mxCell>
        <mxCell id="C1T18Cza7Uqyj3mJv797-6" value="com.lims.model" style="rounded=1;whiteSpace=wrap;html=1;" parent="1" vertex="1">
          <mxGeometry x="268" y="154" width="120" height="60" as="geometry" />
        </mxCell>
        <mxCell id="C1T18Cza7Uqyj3mJv797-45" style="edgeStyle=orthogonalEdgeStyle;rounded=0;orthogonalLoop=1;jettySize=auto;html=1;" parent="1" source="C1T18Cza7Uqyj3mJv797-7" target="C1T18Cza7Uqyj3mJv797-8" edge="1">
          <mxGeometry relative="1" as="geometry" />
        </mxCell>
        <mxCell id="C1T18Cza7Uqyj3mJv797-52" value="Display data" style="edgeLabel;html=1;align=center;verticalAlign=middle;resizable=0;points=[];" parent="C1T18Cza7Uqyj3mJv797-45" vertex="1" connectable="0">
          <mxGeometry x="-0.0235" y="-1" relative="1" as="geometry">
            <mxPoint y="-1" as="offset" />
          </mxGeometry>
        </mxCell>
        <mxCell id="C1T18Cza7Uqyj3mJv797-7" value="view.controller" style="rounded=1;whiteSpace=wrap;html=1;" parent="1" vertex="1">
          <mxGeometry x="628" y="154" width="120" height="60" as="geometry" />
        </mxCell>
        <mxCell id="C1T18Cza7Uqyj3mJv797-8" value="resource.fxml" style="rounded=1;whiteSpace=wrap;html=1;" parent="1" vertex="1">
          <mxGeometry x="988" y="154" width="120" height="60" as="geometry" />
        </mxCell>
        <mxCell id="C1T18Cza7Uqyj3mJv797-9" value="Model" style="text;html=1;align=center;verticalAlign=middle;whiteSpace=wrap;rounded=0;" parent="1" vertex="1">
          <mxGeometry x="298" y="124" width="60" height="30" as="geometry" />
        </mxCell>
        <mxCell id="C1T18Cza7Uqyj3mJv797-10" value="Controller" style="text;html=1;align=center;verticalAlign=middle;whiteSpace=wrap;rounded=0;" parent="1" vertex="1">
          <mxGeometry x="658" y="124" width="60" height="30" as="geometry" />
        </mxCell>
        <mxCell id="C1T18Cza7Uqyj3mJv797-11" value="Passive View" style="text;html=1;align=center;verticalAlign=middle;whiteSpace=wrap;rounded=0;" parent="1" vertex="1">
          <mxGeometry x="998" y="124" width="100" height="30" as="geometry" />
        </mxCell>
        <mxCell id="CGFkXE0XyXRtsUfrexfI-2" style="edgeStyle=orthogonalEdgeStyle;rounded=0;orthogonalLoop=1;jettySize=auto;html=1;exitX=0.75;exitY=0;exitDx=0;exitDy=0;entryX=0.5;entryY=1;entryDx=0;entryDy=0;" edge="1" parent="1" source="C1T18Cza7Uqyj3mJv797-12" target="C1T18Cza7Uqyj3mJv797-21">
          <mxGeometry relative="1" as="geometry" />
        </mxCell>
        <mxCell id="CGFkXE0XyXRtsUfrexfI-4" value="get data" style="edgeLabel;html=1;align=center;verticalAlign=middle;resizable=0;points=[];" vertex="1" connectable="0" parent="CGFkXE0XyXRtsUfrexfI-2">
          <mxGeometry x="0.0316" y="-2" relative="1" as="geometry">
            <mxPoint x="-35" y="23" as="offset" />
          </mxGeometry>
        </mxCell>
        <mxCell id="C1T18Cza7Uqyj3mJv797-12" value="com.lims.DatabaseManager" style="rounded=1;whiteSpace=wrap;html=1;" parent="1" vertex="1">
          <mxGeometry x="478" y="605" width="200" height="60" as="geometry" />
        </mxCell>
        <mxCell id="C1T18Cza7Uqyj3mJv797-47" style="edgeStyle=orthogonalEdgeStyle;rounded=0;orthogonalLoop=1;jettySize=auto;html=1;exitX=0;exitY=0.75;exitDx=0;exitDy=0;entryX=1;entryY=0.75;entryDx=0;entryDy=0;" parent="1" source="C1T18Cza7Uqyj3mJv797-7" target="C1T18Cza7Uqyj3mJv797-6" edge="1">
          <mxGeometry relative="1" as="geometry" />
        </mxCell>
        <mxCell id="C1T18Cza7Uqyj3mJv797-51" value="Update model" style="edgeLabel;html=1;align=center;verticalAlign=middle;resizable=0;points=[];" parent="C1T18Cza7Uqyj3mJv797-47" vertex="1" connectable="0">
          <mxGeometry x="-0.2573" relative="1" as="geometry">
            <mxPoint x="-91" as="offset" />
          </mxGeometry>
        </mxCell>
        <mxCell id="CGFkXE0XyXRtsUfrexfI-3" style="edgeStyle=orthogonalEdgeStyle;rounded=0;orthogonalLoop=1;jettySize=auto;html=1;exitX=0;exitY=0.5;exitDx=0;exitDy=0;entryX=0.5;entryY=0;entryDx=0;entryDy=0;" edge="1" parent="1" source="C1T18Cza7Uqyj3mJv797-21" target="C1T18Cza7Uqyj3mJv797-12">
          <mxGeometry relative="1" as="geometry">
            <Array as="points">
              <mxPoint x="578" y="405" />
            </Array>
          </mxGeometry>
        </mxCell>
        <mxCell id="CGFkXE0XyXRtsUfrexfI-5" value="update data" style="edgeLabel;html=1;align=center;verticalAlign=middle;resizable=0;points=[];" vertex="1" connectable="0" parent="CGFkXE0XyXRtsUfrexfI-3">
          <mxGeometry x="0.0511" y="-1" relative="1" as="geometry">
            <mxPoint y="83" as="offset" />
          </mxGeometry>
        </mxCell>
        <mxCell id="CGFkXE0XyXRtsUfrexfI-10" style="edgeStyle=orthogonalEdgeStyle;rounded=0;orthogonalLoop=1;jettySize=auto;html=1;entryX=0.5;entryY=1;entryDx=0;entryDy=0;" edge="1" parent="1" source="C1T18Cza7Uqyj3mJv797-21" target="C1T18Cza7Uqyj3mJv797-7">
          <mxGeometry relative="1" as="geometry" />
        </mxCell>
        <mxCell id="C1T18Cza7Uqyj3mJv797-21" value="com.lims.controller" style="rounded=1;whiteSpace=wrap;html=1;" parent="1" vertex="1">
          <mxGeometry x="628" y="375" width="120" height="60" as="geometry" />
        </mxCell>
        <mxCell id="C1T18Cza7Uqyj3mJv797-55" style="edgeStyle=orthogonalEdgeStyle;rounded=0;orthogonalLoop=1;jettySize=auto;html=1;exitX=0.5;exitY=0;exitDx=0;exitDy=0;entryX=1;entryY=0.5;entryDx=0;entryDy=0;endArrow=none;endFill=0;" parent="1" source="C1T18Cza7Uqyj3mJv797-53" target="C1T18Cza7Uqyj3mJv797-21" edge="1">
          <mxGeometry relative="1" as="geometry" />
        </mxCell>
        <mxCell id="C1T18Cza7Uqyj3mJv797-62" value="Call function" style="edgeLabel;html=1;align=center;verticalAlign=middle;resizable=0;points=[];" parent="C1T18Cza7Uqyj3mJv797-55" vertex="1" connectable="0">
          <mxGeometry x="-0.1766" y="-1" relative="1" as="geometry">
            <mxPoint x="-1" y="54" as="offset" />
          </mxGeometry>
        </mxCell>
        <mxCell id="C1T18Cza7Uqyj3mJv797-53" value="Utils (Services, API...)" style="rounded=1;whiteSpace=wrap;html=1;" parent="1" vertex="1">
          <mxGeometry x="758" y="605" width="120" height="60" as="geometry" />
        </mxCell>
        <mxCell id="C1T18Cza7Uqyj3mJv797-57" value="Data &amp;amp; Service core" style="text;html=1;align=center;verticalAlign=middle;whiteSpace=wrap;rounded=0;" parent="1" vertex="1">
          <mxGeometry x="438" y="490" width="120" height="30" as="geometry" />
        </mxCell>
        <mxCell id="C1T18Cza7Uqyj3mJv797-60" value="Full core" style="text;html=1;align=center;verticalAlign=middle;whiteSpace=wrap;rounded=0;" parent="1" vertex="1">
          <mxGeometry x="426" y="375" width="70" height="30" as="geometry" />
        </mxCell>
        <mxCell id="CGFkXE0XyXRtsUfrexfI-11" value="Package core (by Anydev)" style="text;html=1;align=center;verticalAlign=middle;resizable=0;points=[];autosize=1;strokeColor=none;fillColor=none;" vertex="1" parent="1">
          <mxGeometry x="408" y="330" width="160" height="30" as="geometry" />
        </mxCell>
      </root>
    </mxGraphModel>
  </diagram>
</mxfile>
